<?xml version="1.0" encoding="UTF-8"?>
<svg id="Capa_1" data-name="Capa 1" xmlns="http://www.w3.org/2000/svg" viewBox="0 0 1080 1080">
  <defs>
    <style>
      .cls-1 {
        letter-spacing: .1em;
      }

      .cls-2 {
        letter-spacing: .13em;
      }

      .cls-3 {
        letter-spacing: .09em;
      }

      .cls-4 {
        font-family: FranklinGothic-HeavyItalic, 'Franklin Gothic Heavy';
        font-size: 175.81px;
        letter-spacing: .04em;
      }

      .cls-4, .cls-5, .cls-6, .cls-7 {
        fill: #fff;
      }

      .cls-4, .cls-6 {
        font-style: italic;
      }

      .cls-4, .cls-7 {
        font-weight: 800;
      }

      .cls-5, .cls-8, .cls-9 {
        stroke-width: 0px;
      }

      .cls-8 {
        fill: #0032f1;
      }

      .cls-6 {
        font-family: Arial-ItalicMT, Arial;
        font-size: 36px;
        stroke: #fff;
        stroke-miterlimit: 10;
        stroke-width: .25px;
      }

      .cls-9 {
        fill: #b0b0b0;
      }

      .cls-7 {
        font-family: FranklinGothic-Heavy, 'Franklin Gothic Heavy';
        font-size: 62.75px;
      }

      .cls-10 {
        letter-spacing: .12em;
      }
    </style>
  </defs>
  <rect class="cls-8" width="1080" height="1080"/>
  <g>
    <path class="cls-5" d="m660.44,198.66s58,2.07,60.77,64.22c0,0,6.21,51.79-53.17,69.05h-101.51v42.81h104.27s82.17,0,92.53-105.65c0,0,9.67-94.6-95.98-112.55h-178.15v145.7h41.43v-104.27l129.82.69Z"/>
    <path class="cls-9" d="m531.31,219.38l127.06.69s66.4,9.25,51.5,84.03c0,0,25.48-33.58,2.18-75.03,0,0-13.33-27.21-49.04-30.19-35.71-2.98-131.69-.91-131.69-.91v21.41Z"/>
    <path class="cls-9" d="m570.67,386.48l102.2-1.38s54.68-4.16,73.26-57.67c0,0-26.91,42.47-70.46,47.31h-109.15l4.14,11.74Z"/>
    <polygon class="cls-9" points="525.1 317.43 531.31 302.24 489.19 302.24 493.33 317.43 525.1 317.43"/>
    <polygon class="cls-5" points="487.81 433.44 530.62 433.44 530.62 468.65 548.57 468.65 556.17 495.58 580.34 495.58 580.34 523.9 440.16 523.9 440.16 501.8 518.88 501.8 518.88 491.44 462.26 491.44 469.86 469.35 487.81 469.35 487.81 433.44"/>
    <rect class="cls-5" x="405.64" y="177.95" width="43.5" height="42.12"/>
    <rect class="cls-5" x="380.78" y="253.9" width="35.22" height="35.91"/>
    <rect class="cls-5" x="328.99" y="300.86" width="27.62" height="27.62"/>
    <rect class="cls-5" x="379.4" y="331.93" width="33.84" height="37.29"/>
    <rect class="cls-5" x="360.75" y="392.7" width="27.62" height="26.24"/>
    <rect class="cls-5" x="419.45" y="395.46" width="35.91" height="35.91"/>
    <rect class="cls-5" x="489.19" y="345.74" width="40.74" height="46.96"/>
    <rect class="cls-5" x="447.07" y="302.93" width="38.67" height="42.81"/>
    <rect class="cls-5" x="447.07" y="220.07" width="40.74" height="41.43"/>
    <polygon class="cls-9" points="494.71 403.06 526.48 403.06 529.93 392.7 489.19 392.7 494.71 403.06"/>
    <polygon class="cls-9" points="384.92 305.69 380.78 289.81 416 289.81 416 253.9 419.45 256.67 419.45 305.69 384.92 305.69"/>
    <polygon class="cls-9" points="362.13 319.5 362.13 341.6 335.9 341.6 328.99 328.48 356.61 328.48 356.61 300.86 362.13 319.5"/>
    <polygon class="cls-9" points="379.4 369.22 386.99 382.34 419.45 382.34 419.45 338.84 413.23 331.93 413.23 369.22 379.4 369.22"/>
    <polygon class="cls-9" points="447.07 345.74 451.9 359.55 487.81 359.55 487.81 305.69 485.74 302.93 485.74 345.74 447.07 345.74"/>
    <polygon class="cls-9" points="393.09 428.5 368.32 428.5 360.75 418.86 388.27 418.86 388.27 392.7 393.09 399.58 393.09 428.5"/>
    <polygon class="cls-9" points="419.45 431.37 425.66 439.65 458.12 439.65 458.12 403.06 455.35 395.46 455.35 431.37 419.45 431.37"/>
    <polygon class="cls-9" points="440.16 523.9 449.14 534.94 574.81 534.94 579.37 523.9 440.16 523.9"/>
    <polygon class="cls-9" points="405.64 221.45 409.78 239.4 447.07 239.4 447.07 221.45 405.64 221.45"/>
    <polygon class="cls-9" points="447.07 261.5 452.59 280.14 487.81 280.14 487.81 261.5 447.07 261.5"/>
  </g>
  <text class="cls-4" transform="translate(163.01 767.49)"><tspan x="0" y="0">PRINTEC</tspan></text>
  <text class="cls-6" transform="translate(236.8 825.8)"><tspan x="0" y="0">SOLO LAS MEJORES MARCAS.....</tspan></text>
  <text class="cls-7" transform="translate(254.78 620.6) scale(.9 1)"><tspan class="cls-10" x="0" y="0">IMPO</tspan><tspan class="cls-2" x="187.23" y="0">R</tspan><tspan class="cls-3" x="238.55" y="0">T</tspan><tspan class="cls-1" x="273.45" y="0">A</tspan><tspan class="cls-10" x="319.86" y="0">CIONES</tspan></text>
</svg>